<svg width="48" height="48" viewBox="0 0 48 48" fill="none" xmlns="http://www.w3.org/2000/svg">
<path fill-rule="evenodd" clip-rule="evenodd" d="M23.4173 34.4907C24.316 34.4907 24.316 33.0504 24.316 32.4917C24.316 31.4922 25.2148 30.4927 26.1136 30.4927C27.0123 30.4927 28.5537 32.2069 29.7086 33.4912C30.6074 34.4907 30.6074 34.4907 31.5062 34.4907C32.4049 34.4907 34.2025 34.4907 34.2025 34.4907C34.2025 34.4907 36 34.4147 36 32.4917C36 31.867 35.3843 30.8076 33.3037 28.4938C31.5062 26.4948 30.584 27.5273 33.3037 23.4964C34.9601 21.0416 36.1654 18.8178 35.9587 18.1761C35.7609 17.5634 31.1538 16.588 30.6074 17.4995C28.8099 20.4979 28.48 21.2325 27.9111 22.4969C27.0123 24.4959 26.9234 25.4953 26.1136 25.4953C25.2966 25.4953 25.2148 23.5553 25.2148 22.4969C25.2148 19.1926 25.6453 16.8558 24.316 16.5C24.316 16.5 22.5185 16.5 21.6197 16.5C20.1727 16.5 18.9234 17.4995 18.9234 17.4995C18.9234 17.4995 17.8081 18.467 18.0247 18.499C18.2925 18.5389 19.8222 18.0852 19.8222 19.4984C19.8222 20.4979 19.8222 21.4974 19.8222 21.4974C19.8222 21.4974 19.8303 25.4953 18.9234 25.4953C18.0247 25.4953 16.2271 21.4974 14.4296 18.499C13.7241 17.3226 13.5308 17.4995 12.6321 17.4995C11.6686 17.4995 10.8354 17.5415 9.93575 17.5415C9.03699 17.5415 8.92195 18.1781 9.03699 18.499C10.8345 23.4964 12.1261 26.6347 15.5414 30.5887C18.6736 34.2158 20.7659 34.4087 22.5185 34.4907C22.9679 34.5117 22.5185 34.4907 23.4173 34.4907Z" fill="white"/>
</svg>
