<svg width="48" height="48" viewBox="0 0 48 48" fill="none" xmlns="http://www.w3.org/2000/svg">
<path d="M30.7502 24.75C29.7002 24.75 27.6002 26.85 23.4002 26.85C19.2002 26.85 17.1002 24.75 16.0502 24.75C14.891 24.75 13.9502 25.6908 13.9502 26.85C13.9502 27.9 14.5466 28.405 15.0002 28.6707C16.2444 29.3983 20.2502 31.05 20.2502 31.05L15.7877 36.7599C15.7877 36.7599 15.0002 37.7416 15.0002 38.4C15.0002 39.5592 15.941 40.5 17.1002 40.5C18.1722 40.5 18.6584 39.8112 18.6584 39.8112C18.6584 39.8112 23.3928 34.1926 23.4002 34.2C23.4075 34.1926 28.142 39.8112 28.142 39.8112C28.142 39.8112 28.6281 40.5 29.7002 40.5C30.8594 40.5 31.8002 39.5592 31.8002 38.4C31.8002 37.7416 31.0127 36.7599 31.0127 36.7599L26.5502 31.05C26.5502 31.05 30.5559 29.3983 31.8002 28.6707C32.2538 28.405 32.8502 27.9 32.8502 26.85C32.8502 25.6908 31.9094 24.75 30.7502 24.75Z" fill="white"/>
<path d="M23.3979 9C19.3386 9 16.0479 12.2907 16.0479 16.35C16.0479 20.4093 19.3386 23.7 23.3979 23.7C27.4561 23.7 30.7479 20.4093 30.7479 16.35C30.7479 12.2907 27.4561 9 23.3979 9ZM23.3979 20.025C21.3682 20.025 19.7229 18.3807 19.7229 16.35C19.7229 14.3204 21.3682 12.675 23.3979 12.675C25.4265 12.675 27.0729 14.3204 27.0729 16.35C27.0729 18.3807 25.4265 20.025 23.3979 20.025Z" fill="white"/>
</svg>
