<svg width="48" height="48" viewBox="0 0 48 48" fill="none" xmlns="http://www.w3.org/2000/svg">
<path d="M38.711 19.2075C38.6229 18.2245 38.1913 17.304 37.4921 16.6075C36.7929 15.9111 35.8707 15.4831 34.8874 15.3989C32.5359 15.2038 29.0506 15 24.7502 15C19.5714 15 15.6622 15.2116 13.1349 15.41C12.147 15.4893 11.219 15.9156 10.5151 16.6133C9.81118 17.3111 9.37679 18.2353 9.28875 19.2225C9.13404 20.8503 9 23.0002 9 25.5634C9 28.0629 9.13293 30.1748 9.28692 31.7824C9.37583 32.7687 9.81059 33.6918 10.5143 34.3886C11.2181 35.0853 12.1455 35.5108 13.1327 35.5899C15.6599 35.7882 19.5699 36 24.7502 36C29.0506 36 32.5359 35.7962 34.8874 35.601C35.8707 35.5168 36.7929 35.0889 37.4921 34.3925C38.1914 33.696 38.6229 32.7755 38.711 31.7925C38.8658 30.1732 39 28.0378 39 25.5C39 22.9622 38.8658 20.8268 38.711 19.2075ZM20.6639 29.9082V21.0918L29.361 25.5L20.6639 29.9082Z" fill="white"/>
</svg>
