<svg width="48" height="48" viewBox="0 0 48 48" fill="none" xmlns="http://www.w3.org/2000/svg">
<path fill-rule="evenodd" clip-rule="evenodd" d="M26.7047 26.705C24.4968 28.9661 24.3415 31.801 24.1545 38C29.9255 38 33.9236 37.9814 35.9763 35.9764C37.9804 33.9244 37.9992 29.7379 38 24.1549C31.8006 24.342 28.9662 24.4972 26.7047 26.705V26.705ZM10 24.1549C10 29.7379 10.0192 33.9244 12.0234 35.9764C14.0758 37.9814 18.0747 38 23.8456 38C23.6586 31.801 23.5026 28.9661 21.2954 26.705C19.0339 24.4972 16.1996 24.342 10 24.1549V24.1549ZM23.8456 10C18.0747 10.0005 14.0758 10.0197 12.0234 12.0241C10.0192 14.0762 10 18.2626 10 23.8456C16.1989 23.6586 19.0339 23.5033 21.2948 21.2954C23.5026 19.0344 23.6578 16.1996 23.8456 10ZM26.7047 21.2954C24.4968 19.0344 24.3415 16.1996 24.1545 10C29.9255 10.0005 33.9236 10.0197 35.9763 12.0241C37.9804 14.0762 37.9992 18.2626 38 23.8456C31.8006 23.6586 28.9662 23.5033 26.7047 21.2954Z" fill="white"/>
</svg>
