<svg width="48" height="48" viewBox="0 0 48 48" fill="none" xmlns="http://www.w3.org/2000/svg">
<path fill-rule="evenodd" clip-rule="evenodd" d="M12.8561 22.4709C20.1039 19.3661 24.9368 17.3193 27.355 16.3304C34.2594 13.5069 35.6941 13.0164 36.6292 13.0002C36.8349 12.9966 37.2947 13.0467 37.5926 13.2844C37.8441 13.485 37.9133 13.7561 37.9464 13.9464C37.9795 14.1366 38.0208 14.57 37.988 14.9087C37.6138 18.7739 35.9949 28.1538 35.1713 32.483C34.8228 34.3148 34.1365 34.929 33.4722 34.9891C32.0284 35.1197 30.9321 34.051 29.5337 33.1497C27.3455 31.7394 26.1094 30.8615 23.9854 29.4853C21.5307 27.8949 23.122 27.0208 24.5209 25.5922C24.887 25.2184 31.2483 19.5294 31.3714 19.0134C31.3868 18.9488 31.4011 18.7082 31.2557 18.5812C31.1103 18.4541 30.8958 18.4976 30.741 18.5321C30.5215 18.5811 27.0259 20.8528 20.2541 25.3472C19.2618 26.0171 18.3631 26.3435 17.5579 26.3264C16.6702 26.3075 14.9626 25.8329 13.6932 25.4272C12.1362 24.9296 10.8988 24.6665 11.0065 23.8214C11.0627 23.3812 11.6792 22.931 12.8561 22.4709Z" fill="white"/>
</svg>
