<svg width="46" height="50" viewBox="0 0 46 50" fill="none" xmlns="http://www.w3.org/2000/svg">
<g clip-path="url(#clip0)">
<path fill-rule="evenodd" clip-rule="evenodd" d="M0.0898438 15.6087H44.6783V13.733H0.0898438V15.6087Z" fill="#E22C38"/>
<path fill-rule="evenodd" clip-rule="evenodd" d="M34.2493 19.0254H29.3205V36.5626H26.9626V24.6636C26.9626 23.6673 26.9056 23.0372 26.7206 22.4215C26.3635 21.1909 25.5341 19.8755 24.4917 19.3475C23.8624 19.0254 23.1342 18.8935 22.377 18.8935C21.4918 18.8935 20.6624 19.0839 19.9631 19.5235C19.0337 20.095 18.3193 21.3371 17.9913 22.5391C17.8343 23.0958 17.7913 23.7108 17.7913 24.6636V36.5626H15.4345V19.0254H10.5052V36.5626H8.17686L8.14777 19.0254H3.37599V36.5626H1.03319V19.0254H0.0898438V17.1497H44.678V19.0254H43.7358V36.5626H41.393V19.0254H36.5921V36.5626H34.2493V19.0254Z" fill="#E22C38"/>
<path fill-rule="evenodd" clip-rule="evenodd" d="M0.756064 10.8248L2.12755 8.94907L3.48505 10.8248L2.12755 12.7006L0.756064 10.8248Z" fill="#E22C38"/>
<path fill-rule="evenodd" clip-rule="evenodd" d="M6.97104 44.1888C7.77026 44.5407 8.45645 45.391 8.45645 46.6217C8.45645 48.2045 7.61326 49.2151 6.54179 49.5229C5.88447 49.7281 5.19939 49.7281 4.57116 49.7281H0.755603V39.0164H4.79922C5.29932 39.0164 5.85671 39.0306 6.41387 39.1775C7.37121 39.441 8.25637 40.2619 8.25637 41.7714C8.25637 43.1633 7.48513 43.8373 6.97104 44.1159V44.1888ZM4.87006 43.6615C5.24247 43.6615 5.58445 43.6173 5.87048 43.4419C6.28463 43.2073 6.57088 42.7091 6.57088 41.9618C6.57088 41.229 6.22778 40.7453 5.72747 40.5699C5.48563 40.4671 5.1854 40.4373 4.79922 40.4373H2.41333V43.6615H4.87006ZM6.72788 46.6217C6.72788 45.8449 6.3568 45.4053 5.91356 45.2149C5.62753 45.0974 5.29932 45.0682 5.0133 45.0682H2.41333V48.3213H4.98532C5.29932 48.3213 5.59955 48.2922 5.84272 48.2045C6.39988 47.9842 6.72788 47.4713 6.72788 46.6217Z" fill="#E22C38"/>
<path fill-rule="evenodd" clip-rule="evenodd" d="M8.95359 10.7513C8.59651 10.6194 8.33935 10.2823 8.33935 9.87256C8.33935 9.35938 8.73952 8.94893 9.25383 8.94893C9.75392 8.94893 10.1541 9.35938 10.1541 9.87256C10.1541 10.2823 9.91092 10.6194 9.55384 10.737L10.4252 12.5542H8.0822L8.95359 10.7513Z" fill="#E22C38"/>
<path fill-rule="evenodd" clip-rule="evenodd" d="M21.6841 48.16L20.5697 49.7277H10.0828L15.7689 39.0161H19.2551V48.2041L21.6841 48.16ZM17.6265 48.2768V40.3201H16.5412L12.4117 48.2768H17.6265Z" fill="#E22C38"/>
<path fill-rule="evenodd" clip-rule="evenodd" d="M15.4121 12.4196H29.2981V10.5439H15.4121V12.4196Z" fill="#E22C38"/>
<path fill-rule="evenodd" clip-rule="evenodd" d="M19.6302 9.00337H25.2594V7.12763H19.6302V9.00337Z" fill="#E22C38"/>
<path fill-rule="evenodd" clip-rule="evenodd" d="M20.2972 2.15509H24.4407V0.293701H20.2972V2.15509Z" fill="#E22C38"/>
<path fill-rule="evenodd" clip-rule="evenodd" d="M20.7414 3.7103H23.7986L22.2699 5.82043L20.7414 3.7103Z" fill="#E22C38"/>
<path fill-rule="evenodd" clip-rule="evenodd" d="M32.675 39.0161V49.728H31.0173V44.7602H25.7174V49.728H24.0737V39.0161H25.7174V43.2949H31.0173V39.0161H32.675Z" fill="#E22C38"/>
<path fill-rule="evenodd" clip-rule="evenodd" d="M35.1618 10.737C34.8047 10.6194 34.5615 10.2823 34.5615 9.87256C34.5615 9.35938 34.9617 8.94893 35.462 8.94893C35.9761 8.94893 36.3762 9.35938 36.3762 9.87256C36.3762 10.2823 36.1191 10.6194 35.762 10.7513L36.6334 12.5542H34.2904L35.1618 10.737Z" fill="#E22C38"/>
<path fill-rule="evenodd" clip-rule="evenodd" d="M39.9264 45.3607L37.0555 49.7277H35.3978L39.1412 44.2034L35.5699 39.016H37.5556L40.1556 42.7967L42.6263 39.016H44.227L40.9268 43.9396L44.8983 49.7277H42.9265L39.9264 45.3607Z" fill="#E22C38"/>
<path fill-rule="evenodd" clip-rule="evenodd" d="M41.1714 10.8248L42.5289 8.94903L43.9004 10.8248L42.5289 12.7005L41.1714 10.8248Z" fill="#E22C38"/>
</g>
<defs>
<clipPath id="clip0">
<rect width="45.0796" height="49.6553" fill="white" transform="translate(0.0898438 0.0664062)"/>
</clipPath>
</defs>
</svg>
