<svg width="32" height="32" viewBox="0 0 32 32" fill="none" xmlns="http://www.w3.org/2000/svg">
    <path fill-rule="evenodd" clip-rule="evenodd" d="M21.1408 19.7266C21.1408 19.7266 25.7952 24.3809 26.7071 25.2929L25.2929 26.7071L19.6118 21.0261C18.2213 21.957 16.5491 22.5 14.75 22.5C9.9175 22.5 6 18.5825 6 13.75C6 8.9175 9.9175 5 14.75 5C19.5825 5 23.5 8.9175 23.5 13.75C23.5 16.0609 22.6042 18.1625 21.1408 19.7266ZM14.75 7C11.028 7 8 10.028 8 13.75C8 17.472 11.028 20.5 14.75 20.5C18.472 20.5 21.5 17.472 21.5 13.75C21.5 10.028 18.472 7 14.75 7Z" fill="#E22C38"/>
</svg>